# xmcd
#
# Track frame offsets:
#	150
#	16926
#	26433
#	38667
#	58158
#	67398
#	77851
#	87116
#	101053
#	110597
#	124618
#	141960
#	154237
#	173026
#	189578
#	206407
#	221110
#	235355
#	251936
#
# Disc length: 3607
#
# Revision: 1
# Processed by: cddbd v1.5.1PL0 Copyright (c) Steve Scherf et al.
# Submitted via: CDex 1.51
# Normalized: r0:TRMNUM
#
DISCID=160e1513
DTITLE=Various Artist - Nejpopularnejsi Country
DYEAR=2003
DGENRE=Country
TTITLE0=Waldemar Matuska - Sedm dostavniku
TTITLE1=Urbankova, Grossman - Drahy muj
TTITLE2=Plavci - Zvednete kotvy
TTITLE3=Miroslav Cerny - Balicek karet
TTITLE4=Plavci - Kral silnic
TTITLE5=Josef Simek - Kdyz nas tata hral
TTITLE6=Karel Zich - Ker ma kvest
TTITLE7=Vera Martinova - Dala jsem lasku rekam
TTITLE8=KTO - Na osade hrali
TTITLE9=Petra Cernocka - Nakladak
TTITLE10=Tomas Linka - Pani ma se ma 
TTITLE11=Karel Gott - Rano jedu dal
TTITLE12=Michal Tucny - Bajecna zenska
TTITLE13=Rottrova, Bobek - S tim blaznem si nic nezacinej
TTITLE14=Vera Martinova - Toulavy dziny
TTITLE15=Brumer, Mlada - Cuntry bal
TTITLE16=Brontosauri - Niagara
TTITLE17=Pavel Bobek - Muz na konci sveta
TTITLE18=Tucny, Martinova - Bud nad veci
EXTD=YEAR: 2003
EXTT0=
EXTT1=
EXTT2=
EXTT3=
EXTT4=
EXTT5=
EXTT6=
EXTT7=
EXTT8=
EXTT9=
EXTT10=
EXTT11=
EXTT12=
EXTT13=
EXTT14=
EXTT15=
EXTT16=
EXTT17=
EXTT18=
PLAYORDER=
